<svg xmlns="http://www.w3.org/2000/svg" viewBox="0 0 260.95 101.73"><path d="M125.76 66a1.72 1.72 0 0 1 .61 2.08c-.1.22-.27.55-.52 1l-.28.42-.24.52a1.66 1.66 0 0 0-.18.24.29.29 0 0 1-.24.14 5.78 5.78 0 0 0-2.68 1.41l-1.12 1.04a12 12 0 0 1-1.08 1 9.81 9.81 0 0 1-9.21 2.36c-3.07-.75-5.5-.64-7.24.33-.88.47-1.52-.1-1.93-1.7l-.37-.42-.38-.42a5.94 5.94 0 0 1-.61-1q-1.08-3.17-2.58-7.64l-1.27-3.83-1.32-3.9-1.12.15-1.13.23-2.3.48a.48.48 0 0 0-.32.19A1 1 0 0 0 90 59a37.86 37.86 0 0 0-3.85 11.41 1.7 1.7 0 0 0 0 .66l.1.33.1.33q.7 2.4-2 2.88a31.56 31.56 0 0 0-5.45 1.79c-.7.28-1.5.68-2.44 1.18l-1.18.66-1.17.6h-1.67l-6.35-2.3-6.2-2.26v-1.42l.14-.2.2-.2a.64.64 0 0 0 .19-.37 117.1 117.1 0 0 1 6.39-26.7l1.46-4.62a2.5 2.5 0 0 0 0-.85v-.85a1.91 1.91 0 0 1 .14-.8l.38-.76.37-.75a8.48 8.48 0 0 0 .57-1.51l2.3-9 2.2-9a1.23 1.23 0 0 0 0-.66 2.49 2.49 0 0 1 0-1.7c.18-.34.7-.55 1.55-.6s1.6-.25 2.67-.47l1.32-.33 1.24-.3a15.49 15.49 0 0 1 5.45-.38 4 4 0 0 0 1.55-.14l.8-.24.8-.28a21.68 21.68 0 0 1 8.46-.43l3.53.43 3.47.52h.33l.33-.1a1.77 1.77 0 0 1 2.21 1 36.19 36.19 0 0 1 3.1 7l1.08 3.63 1 3.68a222.08 222.08 0 0 0 8.27 25.94l.7 1.65.75 1.65a32 32 0 0 1 1.46 3.35 16.86 16.86 0 0 1 .8 2.5l.28 1.27.33 1.28v.33c.02.04.03.13.07.13zM63 70.7a3.69 3.69 0 0 0 2.4-.52l1.32-.94 1.36-1a22.56 22.56 0 0 1 2.72-1.84 3.41 3.41 0 0 0 1.69-2.87Q65.8 67.3 63 70.7zm2.92-7.26a4.23 4.23 0 0 0-2.31 4.34l4.5-3.2A25.08 25.08 0 0 1 73 62l.42-1.5.24-.9.28-1-2.1 1.27-2 1.23-3.93 2.33zm.56-4.3a4.09 4.09 0 0 0-1.93 3.58L67 61.3l2.4-1.42 4.8-2.78a.55.55 0 0 0 .18-.19.3.3 0 0 0 .1-.24l.75-3.25L73 54.9l-2.16 1.46-4.38 2.8zm-1 14.3c1.34.7 2.82.27 4.4-1.28l-.7.1h-.52a8.37 8.37 0 0 0-.94.18L66.5 73l-.57.23zm3.15-50.1a.54.54 0 0 1 .84 0 .48.48 0 0 1 0 .81 3.13 3.13 0 0 1-.65.47L68 25l-.14.1-.18.1-.33.2c-.32.16-.5.33-.52.52a.58.58 0 0 1-.28.33.77.77 0 0 1-.47 0 .42.42 0 0 1-.33-.24.62.62 0 0 1-.1-.47 2.46 2.46 0 0 1 1.27-1.32l.47-.23.43-.2a5.31 5.31 0 0 0 .76-.43zm0 29.67q-2.62 1.37-3 5.23l.47-.28.43-.3.8-.5 6.34-4.3c.88-.6 1.4-.45 1.6.43l.75-2.3.42-1.23.42-1.32-2.16 1.18-2.06 1.18q-2.38 1.37-4.02 2.2zm2.5-35a.72.72 0 0 1 .33.38.65.65 0 0 1 0 .42 1 1 0 0 1-.24.38.63.63 0 0 1-.47 0 2.27 2.27 0 0 1-.75-.57A2 2 0 0 0 68.9 18a3 3 0 0 1-.61-.19l-.56-.24a7.1 7.1 0 0 0-1.22-.47.51.51 0 0 1-.43-.42v-.33c-.1-.35.06-.58.47-.7a.47.47 0 0 1 .66.42l.56.2.52.24a3.28 3.28 0 0 0 1.12.38 2.32 2.32 0 0 1 1.13.47l.28.38.18.28zm.28-5a.87.87 0 0 1 .15.47.85.85 0 0 1-.19.38.63.63 0 0 1-.43.19.45.45 0 0 1-.37-.19l-.66-.8-.6-.8a3 3 0 0 0-1.64-1 .46.46 0 0 1-.38-.24.67.67 0 0 1-.05-.42.84.84 0 0 1 .28-.38.58.58 0 0 1 .47-.1 3.56 3.56 0 0 1 1.93 1.14l.75.9zm-.1 33.25c-2.3 1-3.62 3-4 5.9l4.93-2.64 2.44-1.37 2.54-1.37.28-1 .28-1.08.66-2.46-1.83 1.1-1.8 1.08a36.21 36.21 0 0 1-3.51 1.85zM69 74.5a3.65 3.65 0 0 0 2.82.29 4.25 4.25 0 0 0 2.4-1.56q-2.16-.7-5.22 1.27zm2.44-6.5l-.37-.24-2 1.5v.42h.7a.61.61 0 0 0 .52-.09 5.91 5.91 0 0 0 .61-.75l.24-.43zm.47-26a5.09 5.09 0 0 0-2.54 4.15l2.07-1.32 2.07-1.23 4-2.35a3.4 3.4 0 0 0 1.64-1.75 4.4 4.4 0 0 0 .38-1.13l.1-.6.1-.62-2 1.28-1.92 1.27-3.9 2.23zm2.77-7a7 7 0 0 0-3.9 5.8v.52L72.76 40l1.83-1.28a32.49 32.49 0 0 1 3.76-2.31 4.69 4.69 0 0 0 2.35-2.54 15.34 15.34 0 0 0 .47-1.61l.23-.9.2-.95-1.8 1.22-1.73 1.23-2 1.32zm-.42-3.5c-1.06.6-1.74 1.8-2 3.63l4.32-2.92 4.23-2.7a4.16 4.16 0 0 0 1.88-3.64l-.42.24-.38.24-.66.42-1.7 1.2-1.74 1.18-3.52 2.32zm43.56 35.8c.72-.13 1.64-.24 2.77-.33l1.5-.15q1-.1 1.65-.18l-.57-1.75-.56-1.65-1.13-3.2-1.55-4-1.55-3.9q-1.92-4.77-3-7.93c-.88-2.76-1.94-6.4-3.2-10.9l-1.5-5.47-1.55-5.43c-.3-1-.75-2.17-1.3-3.58l-.7-1.8-.7-1.74-.43.42-.94-.1a6.32 6.32 0 0 1-.94-.14l-.47-.2-.42-.2a2.87 2.87 0 0 0-.94-.38 47.65 47.65 0 0 0-5.36-.7 41.45 41.45 0 0 0-5.49.18c-2.26.26-3.34 1.3-3.24 3.12l.23.23.28.24.47.42-.47.38-.42.43-.33.28-.28.28a1.62 1.62 0 0 0-.42.62L86 23.64l-1 3.47-7.45 27.7-2 7.07L73.6 69c-.3 1.13 0 1.74 1 1.84l4.28.47 2.1.28 2.2.24.23-.85.24-.85.47-1.75.5-2.38a29.45 29.45 0 0 1 .57-2.26 15.5 15.5 0 0 1 1.92-4.29 1.06 1.06 0 0 0 .1-.71v-.38a1.69 1.69 0 0 1 0-.38l.2-.47.28-.5c.2-.37.37-.58.56-.6.7-.1 1.6-.27 2.73-.52l2.77-.6a19.26 19.26 0 0 1 5.59-.43c1.85.16 3.18-.14 4-.9a1 1 0 0 1 .52-.1 2.35 2.35 0 0 1 .61.1 3.6 3.6 0 0 1 1.27.66l.33.23.38.3a1.4 1.4 0 0 1 .51.61l1.5 5.47c.56 2.08 1 3.93 1.36 5.57a1.73 1.73 0 0 0 2.25 1.46l2.87-.52zM75.1 27.1a2.69 2.69 0 0 0-1.23 1.42 15.25 15.25 0 0 0-.32 2l4.22-3q2.44-1.65 4.14-2.64a4.81 4.81 0 0 0 2.21-3.49l-2.3 1.46-2.26 1.42Q77 26 75.1 27.1zm-.9 48.54l3.3-2-.28-.47-3.3 2zm2-52.93a3.77 3.77 0 0 0-1.69 3.4l2.35-1.6L79.2 23c1.76-1.2 3.26-2.17 4.5-2.93a3.75 3.75 0 0 0 1.56-1.84 19.78 19.78 0 0 0 .32-1.13l.14-.6.2-.66-.65.33-.57.28c-.37.22-.7.43-.94.6L80 19.9c-1.54 1.2-2.8 2.1-3.77 2.83zm.76-5.8L76.2 19l-.7 2.07 2.07-1.4 2-1.37 4-2.73-.1-.3-6.2 1.28a.73.73 0 0 0-.18.14 1.28 1.28 0 0 0-.07.23zm23.77 15.8q1.2 3 3 8.45a54.14 54.14 0 0 1 1.56 5.56.91.91 0 0 1-.15.71 1.72 1.72 0 0 1-.47.61 1.08 1.08 0 0 1-.56.19 4.35 4.35 0 0 1-.7-.05l-.57-.18-.56-.24a3.21 3.21 0 0 0-1.13-.28L99 47.44c-.84 0-1.58 0-2.2.1a12.44 12.44 0 0 0-4.32 1.23 1.14 1.14 0 0 1-1.47-.24 2.51 2.51 0 0 1-.65-2l.47-2.08.28-1.13.23-1.13 1.08-4.8 2.35-12a2.26 2.26 0 0 1 .43-.9 1.24 1.24 0 0 1 .7-.61.71.71 0 0 1 .94.24 2.32 2.32 0 0 1 .28.51l.24.57.8 1.9.9 1.88c.78 1.56 1.34 2.83 1.72 3.77zm-7.45 10.7l.38.47 6.86-3.9-.33-1-.14-.47-.2-.53a17.6 17.6 0 0 0-6.58 5.43zm6.58 1.42c.3 0 1.1 0 2.35.14l-.7-1.9-.6-1.75-1.74.95-1.74.94-3.33 1.9.2.42.9-.28a3.19 3.19 0 0 0 .84-.33l.76-.38.75-.37a16.5 16.5 0 0 1 1.55-.71 1.35 1.35 0 0 1 .75 0l.42.1.43.1zm-4.8-8.2c-.07.3-.2.83-.38 1.56l-.1.47-.15.52-.28 1.13 1.37-1 1.26-.9 2.54-1.84c-.06-.2-.2-.52-.38-1l-.46-1.23c-.44.32-1 .68-1.6 1.1l-.43.24-.42.33c-.37.27-.7.47-.98.63zm1.45-6.27c-.25 1.22-.58 2.73-1 4.52 1.25-.78 1.94-1.47 2.06-2.07s-.2-1.38-1.06-2.45zM98 58.76l.32 1.18.2.66.24.7 1.5-1.1 1.5-1 2.92-2.07a7.83 7.83 0 0 0-3.48.33 11.84 11.84 0 0 0-1.6.61zm2.77 2.73c-.88.57-1.33 1-1.36 1.28s.23.85.9 1.8l5.5-3.56-.2-.57-.14-.57q-.24-.7-.42-1.32l-1.13.8-1 .75-2.1 1.4zm.8 6.7l1.12-1 1-.94a66.1 66.1 0 0 1 2.16-1.79 1.19 1.19 0 0 0 .14-2l-5.36 3.3a28.96 28.96 0 0 0 .43 1.13l.23.6zm4.7.2c.68-.5 1.06-.9 1.12-1.23a2.68 2.68 0 0 0-.66-1.6l-.9.76-.9.75a13.48 13.48 0 0 1-1.83 1.37 1.84 1.84 0 0 0-.61 2.92l1.88-1.5 1.92-1.46zm1.55 4.67a4 4 0 0 0 3.94 0 7.43 7.43 0 0 0 1.41-1.23l.66-.75.6-.8-.8.23-.8.33a3.35 3.35 0 0 1-1.55.33 2.91 2.91 0 0 0-1.92.66l-.38.3-.38.33a5 5 0 0 1-.75.61zm8.83-59.76a.56.56 0 0 1 .75-.38.48.48 0 0 1 .38.71 4.43 4.43 0 0 1-4.14 3.21c-.37 0-.56-.2-.56-.6a.55.55 0 0 1 .56-.62 3.18 3.18 0 0 0 3.05-2.31zM115.9 73c.66-.44 1.4-1 2.25-1.6l1.1-.8 1-.8a7.74 7.74 0 0 0-3.76 1 6.36 6.36 0 0 0-2.82 2.83l.6-.14.6-.15a4.75 4.75 0 0 0 1.02-.33zm4.1-53a.5.5 0 0 1 .56.57c0 .4-.2.6-.56.6l-1 .1-1 .14a14.73 14.73 0 0 1-2 .19c-.37 0-.56-.2-.56-.6a.5.5 0 0 1 .56-.57c.47 0 1.14-.1 2-.23l1-.1zm0 7.17a.5.5 0 0 1 .56.56c0 .4-.2.62-.56.62h-2a.67.67 0 0 1-.47-.19.74.74 0 0 1-.14-.43c0-.37.2-.56.6-.56z"/><circle cx="95.66" cy="62.23" r="39.5" fill="#0f0" opacity=".3"/><path d="M4.8 41.46a1 1 0 0 1 .7-.47 13.65 13.65 0 0 1 3.71-4.58l2.4-1.88 1.17-.85 1.08-.8a49.2 49.2 0 0 1 11.52-6.32q19.4-7.83 30.82-9.24a.86.86 0 0 1 1.08.75 5.67 5.67 0 0 1 1.71-.84h.23l.1-.05a1.16 1.16 0 0 1 1.46-.28 1 1 0 0 1 .61 1.37 11.37 11.37 0 0 0-.23 2.64c.28-.07.48.06.6.37a.6.6 0 0 1-.19.76l-.24.1-.18.14-.05 1.1-.1 3.07v3a1.12 1.12 0 0 1-.28.76 1.11 1.11 0 0 1 .26 1.69 14 14 0 0 1-3.47 2.32l-.94.5-1 .52a19.87 19.87 0 0 0-1.78 1 82.77 82.77 0 0 0-7 5.42 1.06 1.06 0 0 1-.66.29 17 17 0 0 1-6.29 2.26 23.26 23.26 0 0 1 3.71 1.37l1.78.8 1.7.7Q54 49.9 57.57 51.8a1.11 1.11 0 0 1 .61.75 1.3 1.3 0 0 1-.23.85 2.41 2.41 0 0 1-.14.43 3.19 3.19 0 0 0-.24 1.74l.14 1v2.9a11.75 11.75 0 0 0 .14 1.93 1.24 1.24 0 0 1 .7.8 1 1 0 0 1-.37 1l-1.32 1.13-1.27 1.18a28.93 28.93 0 0 1-2.58 2.31l-1.88 1.28-1 .56-1 .57a16.37 16.37 0 0 0-3.67 2.69A1 1 0 0 1 44 73a1.06 1.06 0 0 1-.19-1.61q-14.9-7-37.87-19a1.12 1.12 0 0 1-.61-1 17 17 0 0 0-.14-2l-.37-1.94a17.2 17.2 0 0 1-.47-3.91zm35.47.1l.38-.14.5-.14 1.27-.42A18.05 18.05 0 0 0 45 39.76a1.05 1.05 0 0 1-.24-.71v-.14l-.1-3.3-.1-1.7-.05-1.65v-2.08q0-1.28 0-2.13a82.36 82.36 0 0 0-8.27 2.79l-.14.2a.57.57 0 0 1-.61.09L32.7 32.3l-2.77 1.18-5.45 2.26-1.74.7-1.8.66-3.64 1.38q-4.17 1.7-6.86 3.1l-.94.47-.9.57a9.54 9.54 0 0 1-2 .89Q5.37 49.76 12.5 54A52 52 0 0 0 19 57.07l1.65.66 1.55.66 2.86 1.23 18.28 8.9a22 22 0 0 1 .14-8.11 1.08 1.08 0 0 1 .19-.85A26.06 26.06 0 0 0 36 56.93l-2.06-.47-2.07-.46a27 27 0 0 1-3.76-1.09 25.51 25.51 0 0 1-2.82-1.27l-1.46-.8-1.45-.76a24.52 24.52 0 0 0-5.78-2.45 1 1 0 0 1-.85-1.13 1.07 1.07 0 0 1 .8-1.14l.1-.14.14-.2a.85.85 0 0 1 1.31-.23 27.57 27.57 0 0 0 6.82-1.42l1.73-.56 1.7-.57 3.14-.94 2.2-.47 2.2-.33 2.77-.43zm-22.8-8.2c-.37.28-1.1.77-2.16 1.46l-1.22.8-1.22.85a18.21 18.21 0 0 0-4.28 3.87l1.55-.8 1.5-.84a22.57 22.57 0 0 1 2.45-1.18l.33-.15 3.05-4zm7.6-4.06l-3.9 1.8a61.45 61.45 0 0 0-4.74 5.47l1.92-.8 1.88-.8.1-.2.42-.52.38-.52a4.09 4.09 0 0 1 .8-1l.8-.9.85-.9.33-.37.37-.38.8-.88zm-1 20.47l1.08-1.13.6-.52.56-.57-5 1.28 2.45 1.27zm1.27-19a16.09 16.09 0 0 0-1.51 1.61l-.37.42-.43.42-.8.85 2.6-1 1.74-1.6 1.78-1.55 3.48-3.26-4.56 1.8a.64.64 0 0 1 .19.57.49.49 0 0 1-.42.42 2.51 2.51 0 0 0-.9.57l-.6.6zM25.62 50a.58.58 0 0 0-.19.14l-.23.28-.28.28 1.78.9a3 3 0 0 1 .71-.9l1.22-1.18 1.17-1.22a16.12 16.12 0 0 1 1.41-1.3l1.5-1.32-3.95 1.18-2.2 2.2-.9.9zm4.28-35.1c.37 0 .56.16.56.57a.54.54 0 0 1-.56.61 1.51 1.51 0 0 1-.94-.23l-.43-.24-.37-.23-.24-.15-.23-.18-.57-.33c-.47-.26-.83-.3-1.08-.1a.62.62 0 0 1-.47.1.63.63 0 0 1-.33-.29.65.65 0 0 1 0-.42.54.54 0 0 1 .23-.43c.6-.44 1.4-.37 2.4.2l.42.33.57.38a1.76 1.76 0 0 0 1.04.42zm-.7 37.83a.63.63 0 0 1-.05-.52.46.46 0 0 1 .38-.33 6.55 6.55 0 0 0 2.63-1.79l.57-.6.56-.62 1-1.13a24.37 24.37 0 0 1 2.07-1.6v-.05l-.2-.38a1.21 1.21 0 0 1-.09-.8l-1.18.24c-.37.4-.9.92-1.6 1.55l-.85.7-.8.76-2.1 2.2a2 2 0 0 1-.43.38l-.23.2-.33.24a2.69 2.69 0 0 0-.85.94zm7.2-27.87l-3.7 1.4a.71.71 0 0 1 .37.43.53.53 0 0 1-.18.56l-2.45 2.36-2.53 2.26 2.63-1.08 1.22-1.23 1.17-1.22 2.45-2.46.5-.47zM33 12.78a.41.41 0 0 1 0 .43.63.63 0 0 1-.38.23.44.44 0 0 1-.42 0 .55.55 0 0 1-.33-.38.76.76 0 0 0-.28-.37l-.38-.38-.33-.38-.33-.37-1.88-1.8a.58.58 0 0 1-.18-.42 1.09 1.09 0 0 1 .18-.43.74.74 0 0 1 .43-.14.47.47 0 0 1 .42.14l1.13 1.1 1.08 1.08.37.38.38.43a2.11 2.11 0 0 1 .52.89zm8 34.34a13.68 13.68 0 0 0-2.91-.76A36.06 36.06 0 0 0 33.75 50l-.42.38-.43.47-.9.85A5.23 5.23 0 0 1 29.9 53l.5.2.52.18 2.2.52a.57.57 0 0 1 .19-.75l2.3-1.8 1.13-1 1.12-.9.76-.57.75-.6a10.4 10.4 0 0 1 1.69-1.16zM34.36 6.27a8 8 0 0 1 1.46 4.67.53.53 0 0 1-.19.43.54.54 0 0 1-.38.14.57.57 0 0 1-.42-.14.5.5 0 0 1-.19-.43 6.82 6.82 0 0 0-1.31-4 .65.65 0 0 1-.1-.48 1.07 1.07 0 0 1 .28-.33 1 1 0 0 1 .43-.13.6.6 0 0 1 .42.27zm5.36 17.45a8.94 8.94 0 0 0-2.49 1.89l-1.18 1.13-.52.57-.47.52-1.7 1.74 4-1.6 2.44-2.36 1.93-1.6 2-1.56-4.02 1.27zm4.8 24.86l-1.93-.9a6.6 6.6 0 0 0-1.31.81l-.57.5-.6.47-1.17.85-1.18.9q-1.74 1.42-3.66 2.83l2.68.57a12.23 12.23 0 0 0 3-1.89l1.37-1.22.65-.57.66-.57.47-.42.52-.47a10 10 0 0 1 1.08-.9zm2.2 1a8.25 8.25 0 0 1-.94-.42 6.13 6.13 0 0 0-1.27.94l-.28.28-.3.24-.42.42-2.54 2.08-.6.47-.6.52-1.3.94 2 .57a.47.47 0 0 1 .38-.38 2.33 2.33 0 0 0 1-.61l.47-.47.47-.38 1.22-1 1.27-.9 2.54-1.84zM45.4 22a.45.45 0 0 1 0 .71L43 24.53l-2.3 1.93-.24.24-.28.23.82-.23a56.16 56.16 0 0 1 7-5.43zm5.78 29.48l-2.1-.9-.76.52-.32.24-.33.23-3.1 2.36-.62.52-.65.6a7.23 7.23 0 0 1-1.41 1 17 17 0 0 1 3.57 1.79c.53-.4 1.2-.86 2-1.37l1-.56.93-.57 1.88-1.04 1.84-1 .84-.66-1.74-.76a.48.48 0 0 1-.14.38 13.57 13.57 0 0 1-1.88 1.6l-1 .7-1 .8-.7.62-.7.6a4.42 4.42 0 0 1-1.69.8.61.61 0 0 1-.47-.09.63.63 0 0 1-.23-.38.41.41 0 0 1 0-.43.46.46 0 0 1 .33-.28 4.13 4.13 0 0 0 1.84-1l.8-.7.76-.7.8-.57.8-.57a9.52 9.52 0 0 0 1.49-1.22zm-5.87-26a12.64 12.64 0 0 1 3.33-2.26l.94-.47.9-.48 1.7-.94 1-.66 1.1-.67-3.24.6a.61.61 0 0 1-.28.43 49.33 49.33 0 0 0-7 4.86l.8-.24zM47.9 4.24a.58.58 0 0 1 .8-.37c.38.1.5.3.38.66a2.09 2.09 0 0 1-.66.71 2.29 2.29 0 0 0-.66.61l-.28.38-.28.33A11.58 11.58 0 0 0 46 8.16l-.2.38-.18.37a2.14 2.14 0 0 1-.52.66.58.58 0 0 1-.42.19.66.66 0 0 1-.38-.19.59.59 0 0 1-.19-.42.41.41 0 0 1 .19-.42 3.37 3.37 0 0 0 .53-.73l.16-.45.23-.38a9.74 9.74 0 0 1 .85-1.23l.56-.66.6-.66.14-.14.24-.2c.25-.16.37-.17.26-.05zm7.28 50.38l-.32.28-.33.24a2.74 2.74 0 0 1-.52.37l-1.4.76-1.4.8a32.55 32.55 0 0 0-3.38 2.17 3 3 0 0 1-.47.33l-.52.33a6.33 6.33 0 0 0-.89.71 16.67 16.67 0 0 0-.33 5.56 6.39 6.39 0 0 0 1.13-.75l.5-.47.52-.38a8.68 8.68 0 0 1 1.13-.66L50 63.4a23.94 23.94 0 0 0 2.77-1.65l1.3-.9 1.37-.85v-1.32l-.05-1.32a9.67 9.67 0 0 1-1.55 1.09l-.8.47a4.54 4.54 0 0 0-.7.42l-2.82 1.8-.3.14-.32.2a4.44 4.44 0 0 0-.8.52c-.66.4-1 .78-1 1.13a.43.43 0 0 1-.28.37.47.47 0 0 1-.38.05.8.8 0 0 1-.37-.28.5.5 0 0 1-.14-.47 2.86 2.86 0 0 1 1.31-1.7l1-.6.47-.3.42-.23 3.1-2a5 5 0 0 1 .66-.38l.37-.24.38-.23a3.26 3.26 0 0 0 1.22-1 .55.55 0 0 1 .38-.33l-.1-1.15zm.47 7.7l-.14-1-1.22.8-1.22.9a16.59 16.59 0 0 1-2.58 1.51A19.28 19.28 0 0 0 47 66.65a4.19 4.19 0 0 1-1.32.75l.3 2.08c.6-.44 1.33-.93 2.2-1.47l1.18-.66 1.22-.7a20 20 0 0 0 2.58-2l1.27-1.14zM47 27.4a6.85 6.85 0 0 0-.24 1.94.88.88 0 0 1 .43-.1.62.62 0 0 1 .42.24q-.47-.6 3.85-3.2l3.86-2.22 2.77-1.48.8-.42v-2.4a14.73 14.73 0 0 0-2.58 1.51l-.66.43-.6.37-1 .7-1.88 1.27-1.88 1.18a2.92 2.92 0 0 1-.61.33l-.75.33a10.82 10.82 0 0 0-1.51.85.75.75 0 0 1-.41.66zm-.1 5.7v.7c1.88-1.32 4.3-2.83 7.24-4.53q.38-.2 1.08-.66l1.13-.7a10.78 10.78 0 0 1 2.4-1.13v-3.25l-1.22.6-1.27.6a27.68 27.68 0 0 0-2.44 1.42l-1.6 1.13-1.6 1.23a13.81 13.81 0 0 1-3.33 2 .55.55 0 0 1-.57-.19l.1 1.46c.07.55.08 1 .08 1.3zm11.42-2.3a2.48 2.48 0 0 1 .71-.71 1 1 0 0 1-.28-.71v-1.32a12.32 12.32 0 0 0-2.49 1.28l-1.18.75-1.13.66a76.27 76.27 0 0 0-6.76 4.34l-.24.1.1 1.5a5.06 5.06 0 0 1 1.64-1.22l.94-.43.42-.18.38-.2a36.62 36.62 0 0 0 3.24-1.89l.94-.66a4.32 4.32 0 0 1 1-.52.53.53 0 0 1 .66.33l1-.47.94-.52zM52.54 6.65a.52.52 0 0 1 .71-.24.6.6 0 0 1 .37.71v.14a.51.51 0 0 1-.43.43 2.67 2.67 0 0 0-1.19.56l-.47.38L51 9l-.52.33-.48.4a2 2 0 0 0-.76 1 .61.61 0 0 1-.32.33.63.63 0 0 1-.43 0 .47.47 0 0 1-.33-.23.48.48 0 0 1 0-.47A3.83 3.83 0 0 1 50 8.25l.6-.42.6-.47a3.81 3.81 0 0 1 1.32-.71zm3.53 5a.52.52 0 0 1 .8-.24.54.54 0 0 1 .23.81 1.36 1.36 0 0 1-.75.61 10.43 10.43 0 0 0-1.5.75l-.62.43-.6.33a2.89 2.89 0 0 1-1.36.38.67.67 0 0 1-.47-.19.74.74 0 0 1-.14-.43.71.71 0 0 1 .14-.42.5.5 0 0 1 .47-.14 2.2 2.2 0 0 0 1.13-.38l.47-.33.52-.38a10.71 10.71 0 0 1 1.12-.61l.14-.05h.2a.58.58 0 0 0 .24-.14z"/><path d="M0 49.44a124 124 0 0 1 65.78-21.26c2.65-.08 1.25 4.36-.28 6.52s-4.15 3.23-6.62 4.2L25.36 52A74.3 74.3 0 0 0 47 55.37a28.62 28.62 0 0 1 6.92.51A7.72 7.72 0 0 1 59.2 60c1.26 3-.46 6.63-3.2 8.4s-6.16 2.06-9.4 1.85c-9.2-.6-17.8-4.62-26.14-8.6C12.9 58.05 5.6 55.65 0 49.44z" opacity=".3" fill="red"/><path d="M260.12 40.88a.6.6 0 0 1 .71.24.52.52 0 0 1-.1.75l-.28.24-.33.28v2.74a1 1 0 0 1-.75 1.08 12.81 12.81 0 0 1-.89 1.47l-1 1.32a41.56 41.56 0 0 1-3.71 4.1l-1.55 1.74-1.6 2a8.08 8.08 0 0 1-3.85 2.78 1.75 1.75 0 0 1-.56 0q-3.2 1.17-9.2 3L232.3 64l-4.6 1.56q-1.74.62-5.4 2.07l-2.87 1.14-2.86 1.08A40.69 40.69 0 0 1 205 72.58a1.17 1.17 0 0 1-.85-.38 1.12 1.12 0 0 1-.37-.8 17 17 0 0 0-.15-3.63l-.17-1.77a12.72 12.72 0 0 1-.14-1.8 1.18 1.18 0 0 1-.71-1 1 1 0 0 1 .56-1 1.11 1.11 0 0 1 .71-1.28A32.88 32.88 0 0 0 206.7 58l1.4-1.6 1.4-1.6a17.59 17.59 0 0 1 6.58-4.9 13 13 0 0 1 4.13-.52h2.16c.82 0 1.5-.08 2-.14l.9-.1q-9.44-4.38-19-7.73a1.13 1.13 0 0 1-1.55 0 1 1 0 0 1-.28-1.46 1.47 1.47 0 0 0 .09-1.09l-.1-.6a2.16 2.16 0 0 1-.09-.52l-.05-.85V36a14.11 14.11 0 0 0 0-1.61 57.69 57.69 0 0 1-.42-6.46 1 1 0 0 1 .84-1.08l.14-.14 3.53-2.55 1.78-1.32 1.82-1.3 4.28-3.06.6-.43a1 1 0 0 1 .56-1 1.13 1.13 0 0 1 1.08-.1h.2a.87.87 0 0 1 1 .14 1.32 1.32 0 0 1 .42.94l6 1.9 4.93 1.7q6 2.37 10.57 4.4l2.3 1 2.3 1a47 47 0 0 1 4.51 2.36l3.66 2.4 1.27.8.42.3.52.23.94.6a1.15 1.15 0 0 1 1.46.19h.42a1.12 1.12 0 0 1 .75.71 1.08 1.08 0 0 1 0 1zm-15 10.33l-.12-1.46v-1.4l-.33-.2q-4.23-2-10.43-4.34l-5.24-1.9-5.3-1.93a83.68 83.68 0 0 1-17.24-9.11l.23 2.65c.06 1 .08 1.93 0 2.68a10.11 10.11 0 0 0 .14 1.37l.1.76v.7a214.81 214.81 0 0 1 23.07 9.58 1.26 1.26 0 0 1 .85.33l.17.05v.1l5 2.54a1 1 0 0 1 .43 1.56 1.07 1.07 0 0 1-1.6.52h-.14a25.42 25.42 0 0 1-7.94 3.63l-2.2.6-2.2.62-4.14 1.22-4.88 1.5-4.9 1.46c-.28.1-.74.3-1.36.57l-.75.38-.76.28a15.54 15.54 0 0 0 .19 1.94l.14.94a4.44 4.44 0 0 1 .1.85 7.32 7.32 0 0 0 .28 2.21l1.93-.5c1.78-.48 4.1-1.23 6.95-2.27l3.6-1.16 3.47-1.14 5.5-1.7 5.5-1.7q6.35-2 11-3.63a1.09 1.09 0 0 1 .94-1zM212.62 24q-1.08.86-2.9 2.13l-2.92 2.07 4 2.55a15 15 0 0 1 2.72-2.45l1.55-1 1.46-1c.47-.3 1-.7 1.6-1.18l1.6-1.22a23.79 23.79 0 0 1 3.29-2.26.77.77 0 0 1 .52 0 .61.61 0 0 1 .33.28.69.69 0 0 1 .05.43.48.48 0 0 1-.29.33 22.06 22.06 0 0 0-3 1.93l-1.4 1.1-1.4 1.13-1.5 1-1.6 1.17a15 15 0 0 0-2.87 2.41l2.63 1.4.05-.2a17.25 17.25 0 0 1 5.78-5.33l1.74-1 1.73-1.08a21.83 21.83 0 0 0 3.11-2.41.63.63 0 0 1 .65-.09l-3.5-1.4-1.22-.28-.8-.2-.85-.2-1.5 1.08-1.5 1-3 2.17a12 12 0 0 0-1.24 1.1l-1.27 1.22a10.53 10.53 0 0 1-2.77 1.94.54.54 0 0 1-.38.14h-.14a.6.6 0 0 1-.14-1.18 9.05 9.05 0 0 0 3.1-2.08l.75-.66.7-.7a12 12 0 0 1 1.36-1.23 23.11 23.11 0 0 1 2.25-1.6l1.18-.8 1.13-.8a5.1 5.1 0 0 1-1.13-.42l-.1.1a6.59 6.59 0 0 1-.9.52l-.42.24-.42.23-2.07 1.5-1 .8zm2.25 29.58a23.58 23.58 0 0 0-4.08 3.44L209 59l-1.8 1.94 2.92-1 .66-.18 2-3.12 2.08-3.02zM214.45 11a.49.49 0 0 1 .14.47.69.69 0 0 1-.19.38.54.54 0 0 1-.37.18.58.58 0 0 1-.42-.18 7.59 7.59 0 0 1-.71-1.18l-.33-.66-.33-.62A8 8 0 0 0 210 7a.55.55 0 0 1-.28-.38.58.58 0 0 1 .37-.71.53.53 0 0 1 .47.05 6.68 6.68 0 0 1 2.21 2.08l.47.7.47.76.14.38.2.37a3.75 3.75 0 0 0 .41.75zm3 41.36a27.06 27.06 0 0 0-2.54 3.3l-1.17 1.75-1.13 1.74 2.63-.85 1.32-2.26.75-1.08a11.2 11.2 0 0 0 .75-1.14 6 6 0 0 1 .66-.94l.38-.42.28-.48a8 8 0 0 0-1.97.41zm12.4-28.86l-2.3-.9a.56.56 0 0 1 .33.42.48.48 0 0 1-.14.52 20.8 20.8 0 0 1-2.91 2.22l-1.55 1-1.5 1-1.7 1.17-.84.57-.85.6a10.93 10.93 0 0 0-2.82 3l-.1.1 1.78.9a.56.56 0 0 1 .43-.66 4.87 4.87 0 0 0 1.59-1.23l.7-.76.7-.7 3.1-2.55 1.55-1.13 1.52-1.07 2.96-2.47zM217.6 2.87a4.27 4.27 0 0 1 1 2.07 21 21 0 0 1 .18 2.36.61.61 0 0 1-.18.43.54.54 0 0 1-.38.14.68.68 0 0 1-.42-.14.59.59 0 0 1-.19-.43v-.9q0-.55-.1-1a3.23 3.23 0 0 0-.71-1.69.74.74 0 0 1-.14-.43 1 1 0 0 1 .19-.42 1 1 0 0 1 .38-.19.58.58 0 0 1 .36.2zm2.87 49a.64.64 0 0 1 0 .57 4.86 4.86 0 0 1-.62.89l-.37.43-.33.47-.52.85-.5.85a15.29 15.29 0 0 0-1.12 1.79l1-.33 1-.28a12.43 12.43 0 0 1 1.27-2l.66-.85.65-.8 1.22-1.7h-1.22zM230.85 24a.59.59 0 0 1-.19.43q-1.32 1.17-3.48 2.87l-1.78 1.37-1.8 1.33a45.58 45.58 0 0 0-3.61 3.15 7.39 7.39 0 0 1-1.88 1.41l2.88 1.32 3.1-2.83 1.55-1.46 1.55-1.4a36.88 36.88 0 0 1 6.72-5zm-6.77 27.7a.4.4 0 0 1 0 .42 22.75 22.75 0 0 1-2.26 3.11 9.18 9.18 0 0 0-1 1.42l1.92-.52a14.52 14.52 0 0 0 2-3.12l.28-.43.24-.33a5 5 0 0 0 .52-.75l.1-.2-.9.2zm-.75-48.6a2.84 2.84 0 0 1 .19 2.74l-.28.75-.24.7a4.53 4.53 0 0 0-.28 1.37c0 .38-.16.56-.56.56s-.6-.18-.6-.56a5.07 5.07 0 0 1 .18-1.23l.38-1.22a1.92 1.92 0 0 1 .14-.52l.1-.3.15-.37c.15-.57.15-1 0-1.13a.68.68 0 0 1-.15-.43.81.81 0 0 1 .24-.42.66.66 0 0 1 .38-.19.43.43 0 0 1 .37.23zm11.42 22.45a.51.51 0 0 1-.24.71 38.53 38.53 0 0 0-6.43 4.67l-3 2.74-1.42 1.33-1.46 1.32 3.8 1.6c.63-.66 1.43-1.4 2.4-2.26l1.22-1.1 1.22-1a39.36 39.36 0 0 1 6.86-4.95.52.52 0 0 1 .8.24.49.49 0 0 1-.19.8 23.8 23.8 0 0 0-3.43 2.17l-3.2 2.54-1.08 1-1.18 1a26.28 26.28 0 0 0-2.25 2.07l3.33 1.28.24-.14.28-.15a11.5 11.5 0 0 0 1.83-1.51l.85-.9.9-.8 2.07-1.94 2-2 .85-.7.93-.7a9.1 9.1 0 0 0 1.65-1.51.55.55 0 0 1 .42-.19.53.53 0 0 1 .38.19.58.58 0 0 1 .19.38.51.51 0 0 1-.15.47 8.31 8.31 0 0 1-1.69 1.51l-.9.7-.84.7-3.2 3.12-1.5 1.36-1.46 1.42a3 3 0 0 1-.71.57l-.42.33-.47.33 3.53 1.32a16.51 16.51 0 0 1 2.71-2.39l1.5-1.1 1.45-1a73.28 73.28 0 0 0 6.49-5.56l.18-.14q-2.16-1.14-5.2-2.46l-2.6-1.13-1.22-.56-1.27-.52zm-7.52 25.62a1.38 1.38 0 0 1-.23.89.78.78 0 0 1-.29.24 2.5 2.5 0 0 1-.23.33 8.25 8.25 0 0 0-.94 1.51 9.76 9.76 0 0 1-.89 1.41l1.88-.56.6-.85a9.17 9.17 0 0 0 .56-.85c.47-.82 1-1.26 1.55-1.32.38-.07.57.1.57.52a.57.57 0 0 1-.57.66c-.12 0-.26.15-.42.47l-.24.38-.18.33a25.61 25.61 0 0 0 4-1.84l-1.55-.8-1.6-.75a8.78 8.78 0 0 0-2.12.09v.1zm5.45-44.06a.57.57 0 0 1 .71.47.47.47 0 0 1-.43.66 3 3 0 0 0-1.08.48l-.47.37-.47.38a3.42 3.42 0 0 1-2.06 1 .5.5 0 0 1-.57-.56c0-.4.2-.62.57-.62a1.88 1.88 0 0 0 1-.47l.47-.38.43-.37.9-.57a3.59 3.59 0 0 1 1.01-.39zm2.4 3.2c.3-.2.58-.1.8.24a.54.54 0 0 1-.19.8 7.9 7.9 0 0 1-1.18.56l-.56.24-.56.33a15.39 15.39 0 0 0-2.31 2 .54.54 0 0 1-.84-.05.49.49 0 0 1 0-.8 18.59 18.59 0 0 1 2.25-2 5.16 5.16 0 0 1 1.32-.66l.66-.28a3.6 3.6 0 0 0 .61-.38zm4.5 6.08c.25.26.23.52-.05.8a.5.5 0 0 1-.8 0 .62.62 0 0 0-.51-.09h-.33l-.24.05h-.33l-.33-.05a1.84 1.84 0 0 0-.65.09.57.57 0 0 1-.76-.09l-.32-.43a.54.54 0 0 1 .18-.8.55.55 0 0 1 .8.14A2.56 2.56 0 0 1 237 16l.8.05.47-.05.47.05a1.31 1.31 0 0 1 .85.35zm8.83 15.33a.65.65 0 0 1-.14.62 80.29 80.29 0 0 1-6.2 5.37l-1.4 1-1.46 1a26 26 0 0 0-2.77 2.28l2.26.94h.1a4.11 4.11 0 0 0 1.69-.94l.8-.66.7-.6 1.08-.8 1.08-.8 2.06-1.74c.3-.28.63-.65 1-1.1l1-1.22a10.8 10.8 0 0 1 2.35-2.08l-1.13-.56zm3.34 1.94A5.62 5.62 0 0 0 250 35l-.84.85-.38.42-.38.38-.6.66-.6.6-1.3 1.23q-2.9 2.3-4.56 3.54l-.56.42-.57.42 3.06 1.33 3-2.93 3.03-2.93.52-.47.5-.52 1.18-1a14.93 14.93 0 0 1 2.58-1.94l-2.25-1.46zM246.2 46a13.49 13.49 0 0 0 2-1.74l.94-.94.94-.9a12.64 12.64 0 0 1 1.13-.85l.57-.38.56-.37.75-.57.7-.66a1.06 1.06 0 0 1 .84-1.13c.06 0 .14-.07.24-.2l.28-.28a1.59 1.59 0 0 1 .56-.38 2.87 2.87 0 0 1 .71-.66l-.66-.57-.7-.52a12.94 12.94 0 0 0-3.38 2.41l-1.5 1.5-.7.7-.65.66-2.26 2.07-2.2 2.12 1.5.76h.3zm11.52-7l-.33.33a1.56 1.56 0 0 1-.28.29.47.47 0 0 0-.19.09h-.14a1 1 0 0 1-.38.76l-.6.47-.56.56c-.47.44-.87.8-1.18 1l-.66.47-.7.47a9.35 9.35 0 0 0-1.32 1l-.94.9-1 .94a19.69 19.69 0 0 1-2.07 1.7v1.5l1.6-1 1.55-1.08 3.1-2 2.07-1.32 2.07-1.42zm0 5.15l-2.82 1.83-1.84 1.18-1.83 1.28q-2.4 1.6-3.66 2.4h-.14v2.88c.28-.22.64-.54 1.08-1l.23-.23.24-.2q.22-.24.33-.33l2.2-1.75 1.8-1.22 1.83-1 .14-.14.24-.3.28-.33.66-.8a5.66 5.66 0 0 0 .94-1.51 1.28 1.28 0 0 1 .33-.52zm-8.56 10.47l1.46-1.62 1.5-1.65-.75.57-.94.85-.94.9a11.28 11.28 0 0 1-2.06 1.65v1.13a12.2 12.2 0 0 0 .93-1l.43-.47a2.07 2.07 0 0 1 .37-.32z"/><path d="M258.27 55.44a124 124 0 0 0-65.78-21.26c-2.65-.08-1.25 4.36.28 6.52s4.15 3.23 6.62 4.2L232.9 58a74.3 74.3 0 0 1-21.6 3.41 28.62 28.62 0 0 0-6.92.51 7.72 7.72 0 0 0-5.32 4.08c-1.26 3 .46 6.63 3.2 8.4s6.16 2.06 9.4 1.85c9.2-.6 17.8-4.62 26.14-8.6 7.56-3.62 14.85-6.02 20.46-12.23z" opacity=".3" fill="#00f"/><path d="M192.76 14.43a1.1 1.1 0 0 1 .14 1.32 43 43 0 0 0-2.78 7l-1 3.73-.47 1.84-.47 1.74L187 34.3l-1.27 4.2-2.3 8.5q-1.23 5.34-3.76 14.58l-2 7.26-1.88 7.27a.87.87 0 0 1-.32.51 1 1 0 0 1-1.13 1 8.8 8.8 0 0 0-2.45.47l-1.22.43a7.72 7.72 0 0 1-1.22.23l-1 .15-.94.1-1.83.42a7 7 0 0 1-3.1.52 1.31 1.31 0 0 1-.47-.09 1.55 1.55 0 0 1-.52-.19 31.38 31.38 0 0 1-5.68-4.95l-.47-.47-.47-.57-1.08-1.13a8.88 8.88 0 0 1-1.55-2.52.88.88 0 0 1 .28-1.13l.23-.24A266.84 266.84 0 0 0 161.32 40q2.53-11.22 4.33-18.77c.06-.3.15-.9.28-1.9l.1-.6.14-.66.24-1.37a11.49 11.49 0 0 1 1.6-4.81v-.33a1 1 0 0 1 .47-1.42A13.75 13.75 0 0 1 171.71 9l1.64-.47a15.89 15.89 0 0 0 1.65-.47 7.32 7.32 0 0 1 4-.28 37.53 37.53 0 0 1 13.3 6 1.19 1.19 0 0 1 .46.65zM160.05 70l-2.1-1.36-2.07-1.37-.47 1.37v.14c.12.7.83 1.38 2.1 2.07l1.6.7.38.14.33.14a5.75 5.75 0 0 1 .56.29 10.29 10.29 0 0 1 2.16 1.36l.28.33.24.24.2.28 1-2.64a6.33 6.33 0 0 1-2.21-.61 17.19 17.19 0 0 1-1.99-1.09zm2.12 7.22l.66-1.65h-.05a11.51 11.51 0 0 0-3.53-2.64 6.08 6.08 0 0 0-.7-.33l-.85-.42a15.65 15.65 0 0 1-1.69-.9 13.32 13.32 0 0 0 .94 1.13l1 1.13a22.63 22.63 0 0 0 4.22 3.67zM157 64.05l-.7 2a14.8 14.8 0 0 0 1.7 1.08l.84.52.85.52.5.38.57.33 1.13.75a5.62 5.62 0 0 0 2.49.85 1.46 1.46 0 0 1 .28.14l.47-1.22.42-1.28-.84-.47-.8-.42-4.56-2-.28-.1-.3-.1-.6-.28a7 7 0 0 1-1.17-.71zm1.17-3.2l-.56 1.5a.62.62 0 0 1 .14.76 9.67 9.67 0 0 0 2.4 1.22l1.7.76a3.67 3.67 0 0 1 .61.23l.14.05h.05l3.05 1.37.23.14.52-1.65a.45.45 0 0 1-.52.28 5.3 5.3 0 0 1-2.44-1.08l-.56-.43-.57-.47a9 9 0 0 0-1.08-.76l-1.6-1zm1.7-5l-1.32 3.86 3.1 2 1.22.75 1.18.75.47.38.42.38a2.17 2.17 0 0 0 1 .47.74.74 0 0 1 .47.28.71.71 0 0 1 .05.57l.7-2.12.65-2.17a7.4 7.4 0 0 1-3.1-1.51 19.21 19.21 0 0 1-1.36-1.09l-.7-.56-.66-.52-.47-.33-.53-.38a9.69 9.69 0 0 1-1.13-.8zm3-45.33a.57.57 0 0 1 .57.66q0 .6-.57.57a3.13 3.13 0 0 1-1.41-.8l-.28-.24-.33-.28a2.57 2.57 0 0 0-.7-.33.46.46 0 0 1-.38-.24.6.6 0 0 1 0-.42A.78.78 0 0 1 160 9a.48.48 0 0 1 .42-.1 4 4 0 0 1 1.41.76.83.83 0 0 1 .23.19l.24.28a1.09 1.09 0 0 0 .57.34zm-2.58 44v.2a5 5 0 0 1 1.65.94q.33.28.84.66l.33.33a2 2 0 0 0 .28.19l.52.42.52.48q.7.6 1.17 1a6 6 0 0 0 2.59 1.18l.7-2.36-.66-.47-.66-.43q-.56-.33-1.4-.75l-1.5-.66-1-.43-1-.52a7.55 7.55 0 0 1-1.83-1.27l-.38 1.18a.6.6 0 0 1-.17.24zm1.45-5.14l-.5 2a.47.47 0 0 1 .09.71 8.7 8.7 0 0 0 2.07 1.18l1.5.8a5.07 5.07 0 0 1 .57.28 1.26 1.26 0 0 0 .28.09L167 55l1.17.6 1.04.76.84-2.93a24.88 24.88 0 0 1-8.32-4.15zm2.92-42a.57.57 0 0 1 .56.66c0 .4-.2.58-.56.52a1.82 1.82 0 0 1-1.08-.61l-1.32-1.14a.47.47 0 0 1 0-.8.59.59 0 0 1 .89 0l1 .84.38.33h.05l.1.1c0 .01.02.04-.01.04zm-2.07 38.06l-.6 2.63a25.66 25.66 0 0 0 8.36 4.15l.9-3.25-1.36-.57-.66-.23-.65-.24a42.76 42.76 0 0 0-4.94-1.65.57.57 0 0 1-.42-.42l-.05-.2a.62.62 0 0 1 .1-.47.55.55 0 0 1 .37-.24.59.59 0 0 1 .42 0 .46.46 0 0 1 .24.37c0-.06.28 0 .85.15l.32.14.33.1.38.1.9.23.9.28 1.55.57 1.56.6.5.3.47-1.6-2.25-1-2.3-.85a19.53 19.53 0 0 1-4.32-2zm1.32-6.32l-.47 2.08a21.54 21.54 0 0 0 5 2.31l2 .75 2 .85.42-1.5a2.1 2.1 0 0 0-1.12-.84l-.74-.35-.32-.1-.3-.14-.94-.48-1-.5a24.5 24.5 0 0 0-3.29-1.56 5.46 5.46 0 0 1-1.25-.57zm.9-4.15l-.66 2.93.24.14a5.23 5.23 0 0 0 1.64.8l.94.38a5.77 5.77 0 0 1 .8.33l1.7.94 1.8.85.47.2.5.2a5.77 5.77 0 0 1 .94.52l.52-1.9a.58.58 0 0 1-.38-.38 2.48 2.48 0 0 0-1-1.08l-.75-.47-.33-.24L171 38a8.77 8.77 0 0 0-1.31-.76l-.66-.28-.7-.33-3.53-1.73zm22.08-8.53l.75-2.5.7-2.5a41 41 0 0 1 1.64-5 32.75 32.75 0 0 0-7.75 1.94 16.35 16.35 0 0 0-1.74 4.1l-.33 1.13-.28 1.1-.52 1.88c-.34 1-.68 2.32-1 3.82L178 32.3l-.43 1.9-2.06 8.06-1.18 4-1.22 4-1.32 4.5-3.85 13.43a.72.72 0 0 1 .19.71.56.56 0 0 1-.57.38q-1.46 4.66-2.86 8.2l1.08-.38a9.84 9.84 0 0 1 1.17-.33l.8-.1h.8a6.77 6.77 0 0 0 1.55-.28 15 15 0 0 1 3.48-.85v-.2l.05-.1q1.5-6 3.9-15.05l4-15q2.4-9.5 5.35-18.84zm-21.2 4.7l-.6 2.55c.66.38 1.6.85 2.87 1.4l1.4.66 1.45.76.38.2.42.23a9 9 0 0 1 .85.57 7 7 0 0 1 1.54 1.31l.56-2.46h-.1a3.22 3.22 0 0 1-1.5-1.08l-.66-.75-.66-.67a16.85 16.85 0 0 0-5.83-3.11v-.05a1.38 1.38 0 0 0-.13.38zm.7-3.58l-.1.56-.1.48a7.31 7.31 0 0 0-.19.89h.33a.55.55 0 0 1 .56.43 17 17 0 0 1 4.19 2 17.64 17.64 0 0 1 2 1.74l.37.43.38.52a2.08 2.08 0 0 0 .94.66l.66-3h-.2a8.83 8.83 0 0 1-2.49-1.37l-1.16-.9a10.91 10.91 0 0 0-1.27-.75l-.9-.43-1-.38a18.71 18.71 0 0 1-2.05-.94zm1.45-23.16a1.46 1.46 0 0 1 .57 1.18c0 .38-.25.56-.66.56a.49.49 0 0 1-.56-.56c0-.13 0-.25-.2-.38l-.2-.2-.14-.14-.14-.2-.1-.23a4.86 4.86 0 0 0-.23-.43.55.55 0 0 1 0-.85.48.48 0 0 1 .79 0l.2.3.2.33a3.44 3.44 0 0 0 .47.56zM167.3 23l-.66 3.35a19 19 0 0 0 2.21 1l1.13.42 1 .43a6.93 6.93 0 0 1 1.18.71l1.13.84a9.11 9.11 0 0 0 2.33 1.25h.1l.85-3.54a.48.48 0 0 1-.43.14.57.57 0 0 1-.37-.28 2.48 2.48 0 0 0-1.32-.85l-.42-.14-.38-.15a4.29 4.29 0 0 1-.7-.23c-.47-.22-1.13-.58-2-1.1l-1.78-1zm.56-2.64l-.28 1.4.14.14q2.26 1.2 4.75 2.55a6 6 0 0 0 1.13.47l.6.2.6.24a3.26 3.26 0 0 1 1.92 1.41l.33-1.27.38-1.37a.53.53 0 0 1-.57.14 14.77 14.77 0 0 1-2.77-1.36l-1.36-.76a11.81 11.81 0 0 0-1.46-.66l-.8-.24-.9-.23-1.13-.33zm.66-3.1l-.42 1.93a9.43 9.43 0 0 0 2.25.9l1.23.33a9.88 9.88 0 0 1 1.08.33c.34.15.73.36 1.17.6l1.08.66a12.11 12.11 0 0 0 2.3 1.13.49.49 0 0 1 .38.43q.42-1.57.75-2.57a13.71 13.71 0 0 1-1.31-.52l-.66-.33-.7-.24-.65-.23-.7-.2a7.17 7.17 0 0 1-1.31-.43l-1.1-.5-1.12-.55a9.1 9.1 0 0 0-2.26-.78zm.52-2.17l-.24 1a22.73 22.73 0 0 1 5 1.88l1.23.57 1.22.56a15.47 15.47 0 0 0 2.53.81l.3-.62a3.75 3.75 0 0 1-1.41-.75 8.32 8.32 0 0 0-1.69-.85l-.85-.33-.94-.33-1.27-.42-1.3-.48a17.4 17.4 0 0 1-2.59-1.07zm.6-1.56q-.1 0-.24.42a21.71 21.71 0 0 0 2.82 1.18l1.5.52 1.4.47 1.22.38 1.13.47.5.38.47.33a2.19 2.19 0 0 0 1.08.47l.2-.38a5.33 5.33 0 0 1-1-.61l-.47-.33-.5-.38a9.59 9.59 0 0 0-1.6-.85l-.85-.37-.8-.33-.33-.2-.38-.2-.75-.38-1.5-.6-.7-.2-.66-.14a.84.84 0 0 1-.55.3zm3.85-2.7a13.09 13.09 0 0 0-1.5.43 8.3 8.3 0 0 1 1.08.37 5.66 5.66 0 0 0 1.22.47l.66.24.6.24a12.88 12.88 0 0 1 1.27.61l1.22.6a5.13 5.13 0 0 1 .8.52l.75.57a6.4 6.4 0 0 0 1.64.94 1 1 0 0 1 1.41-.14l1.55-.47-1.08-.43-1.12-.4a22 22 0 0 1-2.07-.76l-2.82-1.18-2.77-1.13a.71.71 0 0 1-.57-.05l-.23-.2zm15.23 3.4q-7.16-4.48-13.44-3.73l1.5.66 1.55.6a31.32 31.32 0 0 0 3.06 1.18l2.34.76a10.43 10.43 0 0 1 2.26 1l2.73-.5zM179.27.57c0-.38.14-.57.52-.57a.63.63 0 0 1 .7.57 1.23 1.23 0 0 1-.33.89l-.33.33-.28.38-.23.52-.24.52a2.55 2.55 0 0 1-.56.94.54.54 0 0 1-.85 0 .58.58 0 0 1 0-.85 2.49 2.49 0 0 0 .47-.75l.14-.43.2-.37a2.1 2.1 0 0 1 .43-.62L179 1l.14-.14c.1-.1.16-.2.13-.3zm3.38.8a.56.56 0 0 1 .62-.57c.4 0 .6.2.56.57a1.94 1.94 0 0 1-.66 1.22l-.52.48a3.3 3.3 0 0 0-.47.56.57.57 0 0 1-.84.19.49.49 0 0 1-.19-.8 3.35 3.35 0 0 1 .38-.43l.37-.37.24-.2.23-.2a.77.77 0 0 0 .28-.47zm3.58 2a.47.47 0 0 1 .7.38.63.63 0 0 1-.38.8 4.71 4.71 0 0 0-1.69 1.22.55.55 0 0 1-.84 0 .51.51 0 0 1 0-.84 6.15 6.15 0 0 1 2.21-1.58z"/><path d="M160.85 62.2c-1.24 3.87-2.48 7.87-2.06 11.9s3 8.14 6.9 9.1c3.65.87 7.48-1.2 9.8-4.13s3.43-6.63 4.5-10.22l11.42-38.5c1.06-3.6 2.08-7.67.2-10.92-1.45-2.5-4.36-3.87-7.23-4.18-11.16-1.22-11 7.62-13.8 16.4z" opacity=".3" fill="#ff0"/></svg>